<svg version="1.1" xmlns="http://www.w3.org/2000/svg" xmlns:xlink="http://www.w3.org/1999/xlink" width="1200" height="762" viewBox="0,0,1200,762"><g transform="translate(360,201)"><g data-paper-data="{&quot;isPaintingLayer&quot;:true}" fill-rule="nonzero" stroke-linecap="butt" stroke-linejoin="miter" stroke-miterlimit="10" stroke-dasharray="" stroke-dashoffset="0" style="mix-blend-mode: normal"><path d="M-360,-201h1200v762h-1200z" fill="#760188" stroke="none" stroke-width="1"/><path d="M-360,-201h1200v635h-1200z" fill="#0000ff" stroke="none" stroke-width="1"/><path d="M-360,-201h1200v508h-1200z" fill="#008000" stroke="none" stroke-width="1"/><path d="M-360,-201h1200v381h-1200z" fill="#ffee00" stroke="none" stroke-width="1"/><path d="M-360,-201h1200v254h-1200z" fill="#ff8d00" stroke="none" stroke-width="1"/><path d="M-360,-201h1200v127h-1200z" fill="#e50000" stroke="none" stroke-width="1"/><path d="M308,180l-353,381h-315v-762h315z" fill="#000000" stroke="none" stroke-width="1"/><path d="M234,180l-353,381h-241v-762h241z" fill="#61360d" stroke="none" stroke-width="1"/><path d="M161,180l-353,381h-168v-762h168z" fill="#75d8ee" stroke="none" stroke-width="1"/><path d="M88,180l-353,381h-95v-762h95z" fill="#ffb0c9" stroke="none" stroke-width="1"/><path d="M-338,-201l352,381l-352,381h-22v-762z" fill="#ffffff" stroke="none" stroke-width="1"/><path d="M-360,-146l301,326l-301,325z" fill="#ffd900" stroke="none" stroke-width="1"/><path d="M-329,180c0,-44.18278 35.81722,-80 80,-80c44.18278,0 80,35.81722 80,80c0,44.18278 -35.81722,80 -80,80c-44.18278,0 -80,-35.81722 -80,-80z" fill="none" stroke="#7a00ab" stroke-width="19"/></g></g></svg>